<?xml version="1.0" encoding="UTF-8" standalone="no"?>
<!-- Created with Inkscape (http://www.inkscape.org/) -->

<svg
   xmlns:dc="http://purl.org/dc/elements/1.1/"
   xmlns:cc="http://creativecommons.org/ns#"
   xmlns:rdf="http://www.w3.org/1999/02/22-rdf-syntax-ns#"
   xmlns:svg="http://www.w3.org/2000/svg"
   xmlns="http://www.w3.org/2000/svg"
   xmlns:sodipodi="http://sodipodi.sourceforge.net/DTD/sodipodi-0.dtd"
   xmlns:inkscape="http://www.inkscape.org/namespaces/inkscape"
   width="28.222221mm"
   height="28.222221mm"
   viewBox="0 0 99.999997 99.999997"
   id="svg7283"
   version="1.1"
   inkscape:version="0.91 r13725"
   sodipodi:docname="facebook.svg">
  <defs
     id="defs7285" />
  <sodipodi:namedview
     id="base"
     pagecolor="#ffffff"
     bordercolor="#666666"
     borderopacity="1.0"
     inkscape:pageopacity="0.0"
     inkscape:pageshadow="2"
     inkscape:zoom="1.979899"
     inkscape:cx="79.060375"
     inkscape:cy="23.856253"
     inkscape:document-units="px"
     inkscape:current-layer="layer1"
     showgrid="false"
     fit-margin-top="0"
     fit-margin-left="0"
     fit-margin-right="0"
     fit-margin-bottom="0"
     inkscape:window-width="1787"
     inkscape:window-height="1059"
     inkscape:window-x="133"
     inkscape:window-y="0"
     inkscape:window-maximized="1" />
  <metadata
     id="metadata7288">
    <rdf:RDF>
      <cc:Work
         rdf:about="">
        <dc:format>image/svg+xml</dc:format>
        <dc:type
           rdf:resource="http://purl.org/dc/dcmitype/StillImage" />
        <dc:title></dc:title>
      </cc:Work>
    </rdf:RDF>
  </metadata>
  <g
     inkscape:label="Layer 1"
     inkscape:groupmode="layer"
     id="layer1"
     transform="translate(-283.57144,-630.21928)">
    <g
       id="g60139"
       transform="matrix(0.5025764,0,0,0.5025764,92.139107,403.52873)">
      <rect
         y="465.93356"
         x="457.85715"
         height="182.85715"
         width="115.71429"
         id="rect60137"
         style="color:#000000;clip-rule:nonzero;display:inline;overflow:visible;visibility:visible;opacity:1;isolation:auto;mix-blend-mode:normal;color-interpolation:sRGB;color-interpolation-filters:linearRGB;solid-color:#000000;solid-opacity:1;fill:#ffffff;fill-opacity:1;fill-rule:nonzero;stroke:none;stroke-width:0.60000002;stroke-linecap:butt;stroke-linejoin:bevel;stroke-miterlimit:4;stroke-dasharray:none;stroke-dashoffset:0;stroke-opacity:1;color-rendering:auto;image-rendering:auto;shape-rendering:auto;text-rendering:auto;enable-background:accumulate" />
      <path
         inkscape:connector-curvature="0"
         id="path60135"
         d="m 385.1143,645.81928 -3.4,-3.4 0,-92.2 0,-92.2 3.4,-3.4 3.4,-3.4 92.2,0 92.2,0 3.4,3.4 3.4,3.4 0,92.2 0,92.2 -3.4,3.4 -3.4,3.4 -27.1,0 -27.1,0 0,-38 0,-38 11.30887,0 c 7.50435,0 11.86149,-0.42052 12.95152,-1.25 1.18216,-0.89958 2.11287,-4.80839 3.31995,-13.94313 0.9225,-6.98122 1.40844,-13.39372 1.07986,-14.25 -0.50147,-1.3068 -2.85117,-1.55687 -14.62882,-1.55687 l -14.03138,0 0,-12.04966 c 0,-18.65409 2.05512,-20.95034 18.75034,-20.95034 6.32751,0 10.27877,-0.42911 11.04966,-1.2 0.79084,-0.79084 1.2,-5.02857 1.2,-12.42857 0,-15.30752 0.92969,-14.62717 -19.40484,-14.2007 -15.26408,0.32013 -16.41775,0.48633 -22.34264,3.21884 -7.4538,3.43764 -13.37709,9.48882 -17.06679,17.43528 -2.42804,5.22926 -2.67635,7.01082 -3.1604,22.67515 l -0.52533,17 -12.5,0.5 -12.5,0.5 -0.27659,14.72428 c -0.32418,17.25782 -1.8179,15.63755 14.77659,16.02841 l 10.5,0.24731 0.26203,37.75 0.26202,37.75 -49.61203,0 -49.61202,0 -3.4,-3.4 z"
         style="fill:#3a5897" />
    </g>
  </g>
</svg>
